PathFileType	4	(X/Y/Z)	/Users/itak/Documents/Research/Walk-IL/dataset/trc/00327_00011.trc
DataRate	CameraRate	NumFrames	NumMarkers	Units	OrigDataRate	OrigDataStartFrame	OrigNumFrames
100.000000	100.000000	4	53	mm	100.000000	416	555
Frame#	Time	RPSI			LPSI			L3			STRN			T10			C7			CLAV			RBAK			LBAK			LSHO			LUPA			LAEL			LAOL			LWTS			LWPS			LFRA			LIFD			LHPS			LHTS			RSHO			RUPA			RAEL			RAOL			RWTS			RWPS			RFRA			RIFD			RHTS			RHPS			RBHD			LFHD			RFHD			LBHD			LHIP			RHIP			RASI			LASI			LKNE			LTHI			LANK			LTIP			LTOE			LMT1			LMT5			LHEE			RKNE			RTHI			RANK			RTIP			RTOE			RMT1			RMT5			RHEE			
		X1	Y1	Z1	X2	Y2	Z2	X3	Y3	Z3	X4	Y4	Z4	X5	Y5	Z5	X6	Y6	Z6	X7	Y7	Z7	X8	Y8	Z8	X9	Y9	Z9	X10	Y10	Z10	X11	Y11	Z11	X12	Y12	Z12	X13	Y13	Z13	X14	Y14	Z14	X15	Y15	Z15	X16	Y16	Z16	X17	Y17	Z17	X18	Y18	Z18	X19	Y19	Z19	X20	Y20	Z20	X21	Y21	Z21	X22	Y22	Z22	X23	Y23	Z23	X24	Y24	Z24	X25	Y25	Z25	X26	Y26	Z26	X27	Y27	Z27	X28	Y28	Z28	X29	Y29	Z29	X30	Y30	Z30	X31	Y31	Z31	X32	Y32	Z32	X33	Y33	Z33	X34	Y34	Z34	X35	Y35	Z35	X36	Y36	Z36	X37	Y37	Z37	X38	Y38	Z38	X39	Y39	Z39	X40	Y40	Z40	X41	Y41	Z41	X42	Y42	Z42	X43	Y43	Z43	X44	Y44	Z44	X45	Y45	Z45	X46	Y46	Z46	X47	Y47	Z47	X48	Y48	Z48	X49	Y49	Z49	X50	Y50	Z50	X51	Y51	Z51	X52	Y52	Z52	X53	Y53	Z53	

417	4.16	-915.1395263671875	964.9602661132812	208.2812805175781	-922.4332275390625	961.86474609375	78.24554443359375	-920.3843383789062	1032.104370117188	148.1295928955078	-667.5824584960938	1186.201538085938	107.7657241821289	-916.182373046875	1151.033935546875	142.9624633789062	-854.0489501953125	1392.735717773438	108.7916030883789	-705.6168212890625	1311.677612304688	99.40004730224609	-910.4103393554688	1264.7724609375	195.2222290039062	-877.4329223632812	1349.270263671875	12.56352138519287	-798.100341796875	1352.655517578125	-53.83403778076172	-841.4004516601562	1236.640747070312	-113.9967422485352	-859.6988525390625	1033.629028320312	-129.6494598388672	-911.7777709960938	1029.492553710938	-63.02687072753906	-819.0576171875	770.928955078125	-105.0930938720703	-867.4312744140625	776.5450439453125	-155.4090576171875	-867.9032592773438	930.0589599609375	-140.5092468261719	-868.38525390625	614.69091796875	-108.2444763183594	-891.3432006835938	710.1231689453125	-151.7463073730469	-834.9412231445312	694.01416015625	-125.5045928955078	-775.5440673828125	1375.962158203125	259.5803527832031	-773.4238891601562	1320.537963867188	332.7034301757812	-722.21826171875	1064.4453125	396.1130981445312	-795.1680908203125	1034.78515625	343.3051147460938	-590.1240234375	861.6984252929688	318.6358032226562	-587.9435424804688	847.8692626953125	393.5790710449219	-682.108642578125	1002.734680175781	399.68994140625	-525.7454223632812	702.1083984375	321.1932678222656	-528.310546875	775.6573486328125	320.2892456054688	-550.9894409179688	770.7152709960938	386.0663757324219	-810.0719604492188	1584.013549804688	174.4974670410156	-647.63623046875	1597.259765625	42.6795768737793	-651.138427734375	1603.915893554688	143.7355804443359	-831.820068359375	1567.613159179688	31.32761001586914	-841.1311645507812	903.4360961914062	-29.17219161987305	-839.5316162109375	901.5831909179688	315.8395080566406	-732.1345825195312	921.8772583007812	271.4847106933594	-722.053466796875	921.4102172851562	33.1386833190918	-658.6430053710938	463.4800109863281	11.98507404327393	-708.8273315429688	594.0820922851562	-12.31162261962891	-597.1369018554688	34.48237228393555	68.43148040771484	-637.0625610351562	242.4837188720703	27.65632629394531	-407.3944396972656	125.0535583496094	103.3357238769531	-465.8551025390625	98.25965118408203	152.9850769042969	-477.3384704589844	72.72447967529297	42.24427795410156	-626.5892333984375	37.35486602783203	140.0492095947266	-846.4990844726562	432.81494140625	260.2830200195312	-787.577392578125	685.6995849609375	304.8338623046875	-1013.678100585938	53.22196197509766	200.666748046875	-868.16650390625	313.3820495605469	238.1035308837891	-820.948974609375	49.13322830200195	154.5697021484375	-873.7772827148438	39.00044631958008	111.4622955322266	-912.3223266601562	43.97163772583008	222.5020294189453	-1065.098999023438	56.90517425537109	152.2631072998047	
418	4.17	-922.9931030273438	964.5755615234375	208.7331237792969	-930.6727294921875	961.42138671875	78.59577178955078	-927.7080688476562	1031.724365234375	148.2327728271484	-674.7698974609375	1185.44140625	107.1419448852539	-923.5048217773438	1150.758911132812	142.9182891845703	-860.61572265625	1392.42578125	108.5063095092773	-712.2711181640625	1311.118896484375	98.91130065917969	-917.2923583984375	1264.515991210938	194.8606414794922	-884.1954345703125	1348.941528320312	12.20267105102539	-804.9534301757812	1352.19970703125	-54.33467483520508	-847.9224243164062	1235.691284179688	-114.0464248657227	-864.6679077148438	1032.45751953125	-129.4201202392578	-916.5048828125	1027.916625976562	-62.70706176757812	-821.0278930664062	770.1287231445312	-104.1697998046875	-869.3563842773438	775.1190185546875	-154.4280700683594	-871.7005615234375	928.6500244140625	-140.116943359375	-869.0264282226562	613.5023193359375	-106.5339584350586	-892.7540893554688	708.5159912109375	-150.4544525146484	-836.1920166015625	693.0960083007812	-124.1247100830078	-782.0352172851562	1375.101196289062	259.3397521972656	-780.1178588867188	1319.667358398438	332.3928527832031	-729.5934448242188	1063.4951171875	395.9421081542969	-802.5552978515625	1033.884643554688	343.071044921875	-597.8297119140625	860.3182373046875	318.6341552734375	-595.64013671875	846.5942993164062	393.5948791503906	-689.516357421875	1001.69482421875	399.5659484863281	-534.2390747070312	700.3591918945312	320.9360046386719	-536.5943603515625	773.8258666992188	320.2997741699219	-559.1571044921875	769.1575317382812	386.1559448242188	-817.300048828125	1583.486328125	174.5410308837891	-654.7701416015625	1597.523559570312	42.88951110839844	-658.389404296875	1603.952514648438	143.9442901611328	-838.8267822265625	1567.302001953125	31.32870864868164	-849.7919921875	902.6564331054688	-29.06612396240234	-846.8522338867188	901.076904296875	315.8898010253906	-739.5687255859375	921.387939453125	271.2350769042969	-730.7444458007812	920.211669921875	32.80330657958984	-664.2525634765625	464.0870666503906	11.20350933074951	-715.9721069335938	594.277099609375	-12.44789218902588	-602.7171020507812	35.14932250976562	67.82806396484375	-642.537353515625	243.0732574462891	26.85946846008301	-411.7596130371094	124.1117172241211	101.5369338989258	-470.3961181640625	98.21680450439453	151.4156341552734	-482.7644958496094	72.58431243896484	40.96073150634766	-631.4841918945312	38.02862930297852	139.6253662109375	-850.6455688476562	432.33642578125	259.0689086914062	-794.0138549804688	685.3381958007812	304.478759765625	-1014.483520507812	52.48934173583984	199.8762817382812	-870.8541259765625	312.6752624511719	236.4595947265625	-821.4063110351562	49.44931030273438	154.3129119873047	-874.140380859375	38.49158096313477	111.1306076049805	-912.771484375	44.1904182434082	222.0644836425781	-1065.967163085938	54.91838836669922	151.2887268066406	
419	4.18	-930.86767578125	964.2152709960938	209.1847686767578	-938.8890991210938	961.0853881835938	78.92062377929688	-935.1201782226562	1031.697998046875	148.1432800292969	-681.8934936523438	1184.732666015625	106.5967025756836	-930.5447998046875	1150.782592773438	142.6888275146484	-866.9066772460938	1392.412231445312	108.0612258911133	-718.7037963867188	1310.657348632812	98.36679840087891	-923.9882202148438	1264.565795898438	194.3420562744141	-890.6304931640625	1348.864501953125	11.6103458404541	-811.3618774414062	1351.817260742188	-54.98223114013672	-853.9603881835938	1234.769165039062	-114.2477188110352	-869.3111572265625	1031.321533203125	-129.3184509277344	-921.0487670898438	1026.434692382812	-62.61805725097656	-822.6881713867188	769.5234375	-103.2326889038086	-870.9578857421875	773.7639770507812	-153.3985900878906	-875.2412719726562	927.278564453125	-139.7833557128906	-868.8811645507812	612.4583740234375	-104.7673873901367	-893.7122802734375	706.954345703125	-149.0876617431641	-836.8939208984375	692.374755859375	-122.7724990844727	-788.2550659179688	1374.421997070312	259.0242614746094	-786.5925903320312	1318.954833984375	332.01708984375	-737.054931640625	1062.602783203125	395.8030395507812	-810.0081787109375	1033.138549804688	342.7076721191406	-605.6575927734375	858.9759521484375	318.7687072753906	-603.6830444335938	845.2609252929688	393.72119140625	-697.0741577148438	1000.68408203125	399.5030822753906	-542.659912109375	698.7645263671875	320.8260498046875	-544.9429321289062	772.0927124023438	320.5772399902344	-567.589111328125	767.6261596679688	386.3921203613281	-824.37451171875	1583.104736328125	174.5000610351562	-661.7933959960938	1598.112548828125	43.03096771240234	-665.5155639648438	1604.28076171875	144.0849914550781	-845.7130126953125	1567.17578125	31.25518417358398	-858.2828369140625	902.0879516601562	-28.92151069641113	-854.082275390625	900.7029418945312	315.8993835449219	-746.9249877929688	921.1682739257812	271.0538330078125	-739.2249755859375	919.2998046875	32.48672866821289	-669.4513549804688	465.0685729980469	10.18930912017822	-722.6786499023438	594.9031982421875	-12.79392051696777	-609.3799438476562	36.0201530456543	66.90394592285156	-648.3397216796875	243.9928283691406	25.81396102905273	-417.0089721679688	122.7915725708008	99.82283782958984	-476.0310668945312	97.87407684326172	149.8234252929688	-489.2057800292969	72.35140991210938	39.5761833190918	-637.5887451171875	38.98872756958008	138.8433990478516	-853.6034545898438	432.0498657226562	257.8446044921875	-799.8499755859375	685.315185546875	304.1633911132812	-1015.096984863281	52.11348342895508	199.3227691650391	-872.7680053710938	312.2869262695312	234.9849243164062	-821.7996215820312	49.76667404174805	154.1340179443359	-874.454345703125	38.17617797851562	110.909912109375	-913.1000366210938	44.43305206298828	221.8242645263672	-1066.636962890625	53.61673736572266	150.5895690917969	
420	4.19	-938.7041015625	963.9913330078125	209.6109008789062	-947.0537719726562	960.932861328125	79.22280120849609	-942.658203125	1032.089111328125	147.8701019287109	-688.9127197265625	1184.158325195312	106.1131362915039	-937.2739868164062	1151.157592773438	142.2342681884766	-872.940185546875	1392.722045898438	107.4566345214844	-724.9346313476562	1310.360595703125	97.76052856445312	-930.494873046875	1264.966796875	193.674560546875	-896.7523803710938	1349.092651367188	10.79934597015381	-817.3471069335938	1351.58935546875	-55.76287841796875	-859.5171508789062	1233.9775390625	-114.6156921386719	-873.5619506835938	1030.305541992188	-129.3474731445312	-925.3790283203125	1025.143798828125	-62.7783317565918	-824.0667724609375	769.19482421875	-102.2310333251953	-872.2379150390625	772.5850830078125	-152.3153839111328	-878.4700317382812	926.0491333007812	-139.4849243164062	-867.9917602539062	611.6652221679688	-102.9556427001953	-894.2200927734375	705.5438232421875	-147.6667633056641	-837.0818481445312	691.9212036132812	-121.4439163208008	-794.2196044921875	1374.007080078125	258.6148071289062	-792.8531494140625	1318.487426757812	331.5530395507812	-744.566162109375	1061.862548828125	395.644775390625	-817.5180053710938	1032.65771484375	342.1923217773438	-613.633544921875	857.7160034179688	319.039794921875	-612.1158447265625	843.9220581054688	393.9668579101562	-704.7752685546875	999.7960815429688	399.4607543945312	-551.0926513671875	697.3507080078125	320.9452819824219	-553.39306640625	770.497802734375	321.133056640625	-576.3407592773438	766.1656494140625	386.7806701660156	-831.2782592773438	1582.896118164062	174.3804626464844	-668.6779174804688	1599.007446289062	43.09930038452148	-672.49169921875	1604.875	144.1579437255859	-852.4658203125	1567.276000976562	31.10343933105469	-866.604736328125	901.8318481445312	-28.76029014587402	-861.148193359375	900.6163330078125	315.8508605957031	-754.1600952148438	921.3513793945312	270.8799743652344	-747.43017578125	918.8739013671875	32.13224029541016	-674.2837524414062	466.4930725097656	8.981000900268555	-728.912109375	596.0082397460938	-13.37040138244629	-617.1718139648438	37.10982513427734	65.65238952636719	-654.5286865234375	245.2716064453125	24.53422546386719	-423.2737426757812	121.2211685180664	98.21404266357422	-482.8594970703125	97.31183624267578	148.2386932373047	-496.7281188964844	72.11265563964844	38.09090423583984	-644.9669189453125	40.21695327758789	137.6892547607422	-855.4825439453125	432.0104370117188	256.7510375976562	-805.0145263671875	685.7028198242188	303.8682556152344	-1015.508544921875	51.9686279296875	199.0233612060547	-874.0103759765625	312.2080383300781	233.7525177001953	-822.0962524414062	50.05015182495117	154.0104522705078	-874.7020874023438	38.03014373779297	110.7886962890625	-913.3106079101562	44.6768684387207	221.7474670410156	-1067.107421875	52.86347579956055	150.1914978027344	
